<svg xmlns="http://www.w3.org/2000/svg" xmlns:xlink="http://www.w3.org/1999/xlink" version="1.1" id="Layer_1" x="0px" y="0px" viewBox="0 0 250 45" style="enable-background:new 0 0 250 45;" xml:space="preserve">
<style type="text/css">
	.st0{fill:#FFFFFF;}
</style>
<path class="st0" d="M77.3,1.8h1.4v41.4h-1.4V1.8z M37.5,32.6c-0.4,0-0.5,0.2-0.7,1c-0.3,1.3-0.9,2.4-1.8,3.4  c-2.1,2.4-5,2.9-9.7,2.9c-7.1,0-16.6-6.1-16.6-18.5c0-5,1-10,4.9-13.5c2.3-2.1,5.3-3.2,9.9-3.2c4.9,0,9,1.4,10.7,3.2  c1.2,1.3,2,3,2.1,4.8c0,0.7,0.1,1.1,0.5,1.1c0.5,0,0.6-0.4,0.6-1.2c0.1-1,0.1-3.9,0.2-5.6c0.1-1.8,0.3-2.4,0.3-2.9  c0-0.3-0.2-0.6-0.8-0.6c-1.6-0.2-3.3-0.6-5.3-0.9c-2.5-0.4-5.1-0.5-7.7-0.5c-7.9,0-12.9,2.1-16.7,5.5C2.4,12.4,1.3,18.5,1.3,22  c0,5,1.4,10.9,6.5,15.3l0,0c4.8,4.1,10.9,5.7,18.1,5.7c3.4,0,7.4-0.4,9.5-1.2c0.7-0.2,1.3-0.8,1.4-1.5c0.6-2.3,0.9-4.6,1.2-6.9  C38,33,37.9,32.6,37.5,32.6z M68.8,34.4L68.8,34.4c-0.4,0-0.5,0.2-0.6,0.8c-0.4,2.1-1,3.2-2.4,3.8c-1.4,0.6-3.6,0.6-5,0.6  c-5.4,0-6.2-0.8-6.3-4.4c-0.1-1.5,0-6.3,0-8.1v-4.1c0-0.3,0.1-0.5,0.3-0.5c0.9,0,3.8,0,5.7,0.1V20c-2.2,0-4.9,0-5.7,0  c-0.3,0-0.4-0.2-0.4-0.6V6.3c0-0.4,0.1-0.5,0.4-0.5c1.1,0,6.6,0.1,7.5,0.2c2.6,0.3,3.2,0.9,3.5,1.9c0.2,0.6,0.3,1.2,0.3,1.9  c0,0.5,0.1,0.7,0.5,0.7s0.5-0.3,0.5-0.6c0.1-0.6,0.2-2.9,0.3-3.4c0.1-1.1,0.2-2.3,0.4-3.4c0-0.3-0.1-0.5-0.3-0.5  c-0.3,0-0.6,0.1-0.8,0.2c-0.8,0.1-1.5,0.3-2.3,0.3c-1,0.1-11.5,0.1-13.2,0.1c-0.7,0-2-0.1-3.3-0.1c-1.3,0-2.9-0.1-4.3-0.1  c-0.8,0-1.2,0.1-1.2,0.5c0,0.4,0.3,0.5,0.9,0.5c0.7,0,1.4,0,2.1,0.2c1.7,0.4,2.2,1.2,2.3,3c0.1,1.7,0.1,3.1,0.1,11v9.2  c0,4.8,0,8.9-0.3,11.1c-0.2,1.5-0.5,2.6-1.5,2.9c-0.6,0.1-1.3,0.2-1.9,0.2c-0.6,0-0.8,0.2-0.8,0.4c0,0.4,0.4,0.5,1.1,0.5  c1.1,0,2.4-0.1,3.6-0.1c1.3-0.1,2.4-0.1,3-0.1c1.6,0,3.2,0.1,5.5,0.2c2.3,0.1,5.2,0.2,9.1,0.2c2,0,2.5,0,2.9-1.4  c0.4-1.9,0.6-3.8,0.7-5.8C69.3,34.8,69.3,34.4,68.8,34.4z M92.3,28.6c0.7,0,1.4,0.1,2.1,0.4l0.3-1.1c-0.8-0.3-1.6-0.5-2.5-0.5  c-3.2,0-5.4,2.2-5.4,5.4c0,3.4,2.2,5.2,5.1,5.2c0.9,0,1.9-0.1,2.7-0.5l-0.3-1.1c-0.7,0.3-1.4,0.4-2.2,0.4c-2.5,0-4-1.6-4-4.2  C88.3,30.2,89.9,28.6,92.3,28.6z M104.5,32.8L104.5,32.8c0,3.6-2.2,5.5-4.8,5.5C97,38.2,95,36.1,95,33c0-3.3,2-5.4,4.8-5.4  C102.7,27.5,104.5,29.7,104.5,32.8z M103.1,32.8c0-2.1-1.1-4.2-3.3-4.2c-2.2,0-3.3,2-3.3,4.3c0,2.2,1.2,4.2,3.3,4.2  C101.9,37.1,103.1,35.2,103.1,32.8z M107.2,27.7h-1.3l0,10.4h5.7v-1.1h-4.4V27.7z M114,27.7h-1.3v10.4h5.7v-1.1H114V27.7z   M120.9,33.2h4l0-1.1h-4v-3.3h4.2v-1.1h-5.6v10.4h5.8v-1.1h-4.5V33.2z M131.1,33.7h2.1v3.1c-0.6,0.2-1.2,0.3-1.8,0.3  c-2.4,0-4-1.6-4-4.2c0-2.6,1.6-4.2,4.2-4.2c0.8,0,1.6,0.1,2.3,0.4l0.3-1.1c-0.8-0.3-1.7-0.5-2.6-0.5c-3.5,0-5.6,2.3-5.6,5.4  c0,0.3,0,0.6,0,0.8c0.3,2.7,2.6,4.6,5.3,4.4c1.1,0,2.2-0.2,3.2-0.6l0-5h-3.4V33.7z M137.5,33.2h4l0-1.1h-4v-3.3h4.2v-1.1h-5.6v10.4  h5.8v-1.1h-4.5V33.2z M155.1,32.8L155.1,32.8c0,3.6-2.2,5.5-4.8,5.5c-2.7,0-4.6-2.1-4.6-5.3c0-3.3,2-5.4,4.8-5.4  C153.2,27.5,155.1,29.7,155.1,32.8z M153.6,32.8c0-2.1-1.1-4.2-3.3-4.2c-2.2,0-3.3,2-3.3,4.3c0,2.2,1.2,4.2,3.3,4.2  C152.4,37.1,153.6,35.2,153.6,32.8z M156.4,38.1h1.3v-4.7h3.9v-1.1h-3.9v-3.4h4.2v-1.1h-5.6V38.1z M167.7,33.2h4l0-1.1h-4v-3.3h4.2  v-1.1h-5.6v10.4h5.8v-1.1h-4.5V33.2z M180,32c0,1.6,0,2.9,0.2,4.3l0,0c-0.5-1.2-1.2-2.3-1.9-3.4l-3.3-5.3h-1.5v10.4l1.3,0v-4.4  c0-1.7,0-3-0.1-4.3l0,0c0.6,1.2,1.2,2.3,1.9,3.5l3.3,5.3h1.3V27.7H180V32z M187.7,33.7h2.1v3.1c-0.6,0.2-1.2,0.3-1.8,0.3  c-2.4,0-4-1.6-4-4.2c0-2.6,1.6-4.2,4.2-4.2c0.8,0,1.6,0.1,2.3,0.4l0.3-1.1c-0.8-0.3-1.7-0.5-2.6-0.5c-3.5,0-5.6,2.3-5.6,5.4  c0,0.3,0,0.6,0,0.8c0.3,2.7,2.6,4.6,5.3,4.4c1.1,0,2.2-0.2,3.2-0.6l0-5h-3.4V33.7z M192.7,38.1h1.3V27.7h-1.3V38.1z M202.5,32  c0,1.6,0,2.9,0.2,4.3l0,0c-0.5-1.2-1.2-2.3-1.9-3.4l-3.3-5.3H196v10.4l1.3,0v-4.4c0-1.7,0-3-0.1-4.3l0,0c0.6,1.2,1.2,2.3,1.9,3.5  l3.3,5.3h1.3V27.7h-1.3V32z M207,33.2h4v-1.1h-4v-3.3h4.2v-1.1h-5.6v10.4h5.8v-1.1H207V33.2z M214.2,33.2h4l0-1.1h-4v-3.3h4.2v-1.1  h-5.6v10.4h5.8v-1.1h-4.5V33.2z M225.9,35.2c0.2,1,0.4,1.9,0.8,2.8h-1.4c-0.3-0.8-0.5-1.6-0.7-2.5c-0.3-1.4-0.9-2-2.1-2h-1.3v4.5  H220l0-10.2c0.8-0.1,1.7-0.2,2.6-0.2c1.4,0,2.3,0.3,3,0.8c0.5,0.5,0.8,1.2,0.8,2c0,1.2-0.8,2.3-1.9,2.6v0  C225.2,33.4,225.7,34.2,225.9,35.2z M225,30.6c0-1.3-1-1.9-2.4-1.9c-0.4,0-0.9,0-1.3,0.1v3.8h1.4C224.1,32.6,225,31.8,225,30.6z   M227.9,38.1h1.3V27.7h-1.3V38.1z M237.7,32c0,1.6,0,2.9,0.2,4.3l0,0c-0.5-1.2-1.2-2.3-1.9-3.4l-3.3-5.3h-1.5v10.4l1.3,0v-4.4  c0-1.7,0-3-0.1-4.3l0,0c0.6,1.2,1.2,2.3,1.9,3.5l3.3,5.3h1.4V27.7h-1.3V32z M245.3,32.6v1.1h2.1v3.1c-0.6,0.2-1.2,0.3-1.8,0.3  c-2.4,0-4-1.6-4-4.2c0-2.6,1.6-4.2,4.2-4.2c0.8,0,1.6,0.1,2.3,0.4l0.3-1.1c-0.8-0.3-1.7-0.5-2.6-0.5c-3.5,0-5.6,2.3-5.6,5.4  c0,0.3,0,0.6,0,0.8c0.3,2.7,2.6,4.6,5.3,4.4c1.1,0,2.2-0.2,3.2-0.6v-5H245.3z M94.5,9c0.6,0,1-0.3,1-1c0-0.7-0.3-1-1-1  c-0.6,0-1,0.3-1,1C93.5,8.6,93.8,9,94.5,9z M91.6,9c0.6,0,1-0.3,1-1c0-0.7-0.3-1-1-1c-0.6,0-1,0.3-1,1C90.7,8.6,91,9,91.6,9z   M92.9,19.7c-1.1,0.1-2.2-0.3-3.1-1.1c-0.8-0.8-1.2-2-1.1-3.1c-0.1-1.3,0.4-2.6,1.4-3.5c1-0.9,2.3-1.3,3.7-1.3h2.8v7.5l23.4,0v-6.1  h1.6v4c0,0.5,0.2,1.1,0.6,1.5c0.4,0.4,0.9,0.6,1.4,0.6h1.1v-6.1h1.6v4c0,0.5,0.2,1.1,0.6,1.5c0.4,0.4,0.9,0.6,1.4,0.6h1.1v-7.5h1.6  v9h-2.6c-0.8,0.1-1.7-0.3-2.1-1.1v1.1h-2.6c-0.8,0.1-1.7-0.3-2.1-1.1v1.1L92.9,19.7z M94.9,12.1h-1.2c-0.9-0.1-1.9,0.3-2.6,0.9  c-0.6,0.6-1,1.5-0.9,2.4c0,1.9,0.8,2.8,2.5,2.8h2.1V12.1z M142.4,19.7L142.4,19.7c-0.7,0-1.4-0.4-1.8-1v1h-7.7v-1.4h6.1  c-0.6-3.5-1.9-5.8-3.9-6.7l0.6-1.4c2.1,0.9,3.6,3,4.5,6.3c0.1,0.5,0.4,0.9,0.8,1.2c0.4,0.4,0.9,0.6,1.4,0.6h2.4v-7.5h1.6v5.8  c0,0.5,0.2,1,0.5,1.3c0.4,0.3,0.8,0.5,1.3,0.5l9.5,0c-0.9-0.6-1.4-1.6-1.3-2.7c-0.1-1.1,0.4-2.2,1.3-2.9c1.1-0.8,2.4-1.1,3.7-1h2.2  v6.6h2.8v-4.4c0-1.6-0.4-2.9-1.1-3.7c-0.8-0.8-1.9-1.2-3.6-1.2c-1.2,0-2.3,0.2-3.4,0.5L158.1,8c1.2-0.4,2.5-0.6,3.8-0.6  c2,0,3.5,0.5,4.6,1.6c1.1,1.2,1.7,2.9,1.6,4.6v4.5l4.3,0V5.6h1.6v14.1l-25.5,0c-0.8,0.1-1.7-0.3-2.1-1.1v1.1H142.4z M158.2,15.6  c0,0.7,0.2,1.4,0.7,1.9c0.5,0.5,1.2,0.7,1.9,0.7h1.5V13h-0.7C159.3,13,158.2,13.9,158.2,15.6z M145.7,9c0.6,0,1-0.3,1-1  c0-0.7-0.3-1-1-1c-0.6,0-1,0.3-1,1C144.7,8.6,145.1,9,145.7,9z M158.5,9.5L158.5,9.5C158.5,9.5,158.5,9.5,158.5,9.5L158.5,9.5z   M178.9,5.6h-1.6v14.1h1.6V5.6z M192,9c0.6,0,1-0.3,1-1c0-0.7-0.3-1-1-1c-0.6,0-1,0.3-1,1C191.1,8.6,191.4,9,192,9z M189.2,9  c0.6,0,1-0.3,1-1c0-0.7-0.3-1-1-1c-0.6,0-1,0.3-1,1C188.2,8.6,188.6,9,189.2,9z M231.9,22.4c0.6,0,1-0.3,1-1s-0.3-1-1-1  c-0.6,0-1,0.4-1,1S231.3,22.4,231.9,22.4z M229.1,20.3c-0.6,0-1,0.4-1,1s0.3,1,1,1c0.6,0,1-0.3,1-1S229.7,20.3,229.1,20.3z   M239.8,19.7c-0.8,0.1-1.7-0.3-2.1-1.1v1.1h-4.2v0h-0.1c-0.8,0.1-1.7-0.3-2.1-1.1v1.1l-41,0c-1.1,0.1-2.2-0.3-3.1-1.1  c-0.8-0.8-1.2-2-1.1-3.1c-0.1-1.3,0.4-2.6,1.4-3.5c1-0.9,2.3-1.3,3.7-1.3h2.8v7.5l35.8,0v-7.5h1.6v5.8c0,0.5,0.2,1,0.5,1.3  c0.4,0.3,0.8,0.5,1.3,0.5l2.8,0V5.6h1.6v10.9c0,0.5,0.2,1,0.5,1.3c0.4,0.3,0.8,0.5,1.3,0.5h7.4v-3.4c0-1.8-1.1-2.7-3.4-2.7h-2.4  v-1.5c0.6-1.3,1.6-2.5,2.7-3.5c1.1-1.1,2.4-1.9,3.8-2.5l0.6,1.4c-1.2,0.5-2.3,1.2-3.3,2c-0.9,0.7-1.7,1.6-2.2,2.7h0.9  c1.3-0.1,2.6,0.3,3.7,1c0.9,0.7,1.4,1.8,1.3,2.9v5.1L239.8,19.7z M192.5,12.1h-1.2c-0.9-0.1-1.9,0.3-2.6,0.9c-0.6,0.6-1,1.5-0.9,2.4  c0,1.9,0.8,2.8,2.5,2.8h2.1V12.1z"/>
</svg>